<svg width="78" height="37" viewBox="0 0 78 37" fill="none" xmlns="http://www.w3.org/2000/svg">
<path d="M0.09375 1.54688C3.4375 1.67187 6.0625 1.73438 7.96875 1.73438C9.79688 1.73438 11.8125 1.67187 14.0156 1.54688C14.0781 1.79688 14.1094 1.96875 14.1094 2.0625C14.1094 2.23437 14.0781 2.42969 14.0156 2.64844C12.6562 2.71094 11.7188 2.88281 11.2031 3.16406C10.7031 3.42969 10.4531 3.78125 10.4531 4.21875C10.4531 4.34375 10.4688 4.49219 10.5 4.66406C10.5469 4.82031 13.7188 12.6562 20.0156 28.1719H20.25L24.8203 15.9844L20.6953 5.53125C20.0391 3.84375 18.4688 2.88281 15.9844 2.64844C15.9219 2.36719 15.8906 2.17188 15.8906 2.0625C15.8906 1.90625 15.9219 1.73438 15.9844 1.54688C18.1875 1.67187 20.6328 1.73438 23.3203 1.73438C25.7891 1.73438 28.125 1.67187 30.3281 1.54688C30.3906 1.79688 30.4219 1.96875 30.4219 2.0625C30.4219 2.23437 30.3906 2.42969 30.3281 2.64844C28.4375 2.71094 27.2109 2.85938 26.6484 3.09375C26.1016 3.3125 25.8281 3.73438 25.8281 4.35938C25.8281 4.375 25.9375 4.76562 26.1562 5.53125L34.8047 28.1719H35.0391L43.5938 5.22656C43.6875 4.99219 43.7344 4.6875 43.7344 4.3125C43.7344 3.8125 43.4297 3.45312 42.8203 3.23438C42.2109 3 41.2188 2.80469 39.8438 2.64844C39.7812 2.30469 39.75 2.09375 39.75 2.01562C39.75 1.89063 39.7812 1.73438 39.8438 1.54688C41.7656 1.64062 43.6016 1.6875 45.3516 1.6875C47.0547 1.6875 48.7344 1.64062 50.3906 1.54688C50.4531 1.73438 50.4844 1.89063 50.4844 2.01562C50.4844 2.26563 50.4531 2.47656 50.3906 2.64844C49.2812 2.75781 48.3594 2.99219 47.625 3.35156C46.9062 3.71094 46.3438 4.33594 45.9375 5.22656L34.0312 36.6797H32.9766L25.9219 18.8203L19.2422 36.6797H18.1875L5.32031 5.53125C4.63281 3.875 2.89062 2.91406 0.09375 2.64844C0.03125 2.36719 0 2.17188 0 2.0625C0 1.90625 0.03125 1.73438 0.09375 1.54688ZM74.625 11.4609C74.0312 8.60156 72.9375 6.38281 71.3438 4.80469C69.7656 3.22656 67.8672 2.4375 65.6484 2.4375C63.4766 2.4375 61.7891 2.95312 60.5859 3.98438C59.3984 5.01562 58.8047 6.39062 58.8047 8.10938C58.8047 9.0625 58.8906 9.85156 59.0625 10.4766C59.2344 11.1016 59.5859 11.7109 60.1172 12.3047C60.6484 12.8828 61.4219 13.3984 62.4375 13.8516C63.4531 14.2891 64.7812 14.7109 66.4219 15.1172C67.3125 15.3359 68.0859 15.5391 68.7422 15.7266C69.4141 15.9141 70.1484 16.1719 70.9453 16.5C71.7578 16.8281 72.4531 17.1797 73.0312 17.5547C73.625 17.9297 74.2109 18.3984 74.7891 18.9609C75.3828 19.5078 75.8594 20.1172 76.2188 20.7891C76.5938 21.4609 76.8906 22.2578 77.1094 23.1797C77.3438 24.0859 77.4609 25.0781 77.4609 26.1562C77.4609 27.5938 77.1953 28.9219 76.6641 30.1406C76.1328 31.3438 75.4375 32.3594 74.5781 33.1875C73.7188 34.0156 72.7266 34.7188 71.6016 35.2969C70.4766 35.875 69.3359 36.2969 68.1797 36.5625C67.0234 36.8281 65.875 36.9609 64.7344 36.9609C61.2656 36.9609 57.5703 36.0625 53.6484 34.2656C53.7266 32.5781 53.7656 31.5391 53.7656 31.1484C53.7656 28.6016 53.5547 26.0625 53.1328 23.5312C53.3047 23.4219 53.4766 23.3672 53.6484 23.3672C53.8672 23.3672 54.0625 23.4219 54.2344 23.5312C54.5625 25.5469 55.1016 27.3281 55.8516 28.875C56.6172 30.4219 57.4922 31.6484 58.4766 32.5547C59.4609 33.4453 60.4766 34.1172 61.5234 34.5703C62.5859 35.0078 63.6562 35.2266 64.7344 35.2266C67.1875 35.2266 69.0703 34.5938 70.3828 33.3281C71.7109 32.0469 72.375 30.3594 72.375 28.2656C72.375 26.1562 71.8828 24.5703 70.8984 23.5078C69.9297 22.4297 68.0703 21.5547 65.3203 20.8828C61.8828 20.0234 59.1953 18.7578 57.2578 17.0859C55.3359 15.3984 54.375 13.1719 54.375 10.4062C54.375 8.95312 54.6094 7.65625 55.0781 6.51562C55.5625 5.35938 56.1797 4.4375 56.9297 3.75C57.6953 3.04688 58.5859 2.46875 59.6016 2.01562C60.6172 1.54688 61.6172 1.22656 62.6016 1.05469C63.6016 0.867188 64.6172 0.773438 65.6484 0.773438C68.7422 0.773438 71.9609 1.49219 75.3047 2.92969C75.2109 3.85156 75.1641 4.8125 75.1641 5.8125C75.1641 8.15625 75.3516 10.0391 75.7266 11.4609C75.5234 11.5391 75.3516 11.5781 75.2109 11.5781C75.0547 11.5781 74.8594 11.5391 74.625 11.4609Z" fill="#48024E"/>
</svg>
